# xmcd
#
# Track frame offsets: 
#        150
#        13711
#        29110
#        44851
#        56375
#        70820
#        83356
#        94023
#        105728
#        113615
#        124841
#        135578
#        147640
#        159924
#        176963
#        193249
#        204998
#        216581
#        228586
#        239673
#        250827
#        262648
#
# Disc length: 3647 seconds
#
# Revision: 1
# Processed by: cddbd v1.5.2PL0 Copyright (c) Steve Scherf et al.
# Submitted via: ExactAudioCopyFreeDBPlugin 1.0
#
DISCID=440e3d16
DTITLE=Various Artist - The XL and Sound of Memphis Story
DYEAR=2008
DGENRE=Soul
TTITLE0=George Jackson - All in My Mind
TTITLE1=Vision - Play the Game
TTITLE2=Art Jerry Miller - Got to Get Home
TTITLE3=The Ovations - Gotta Move On (To My Destiny)
TTITLE4=Everyday People - Today, Tomorrow and You
TTITLE5=The Minits - Natural Reaction
TTITLE6=William Bollinger - Is it Love
TTITLE7=Barbara and The Browns - You Don't Love Me
TTITLE8=Charlie's Children - #1
TTITLE9=The Minits - Stepping Stone
TTITLE10=Lou Roberts - She's Not Mama's Little Girl Anymore
TTITLE11=Spencer Wiggins - Take Time to Love Your Woman
TTITLE12=The Ovations - Little Man
TTITLE13=George Jackson - I Don't Need You No More
TTITLE14=The Sweeteens - So Much Love to This
TTITLE15=William Bollinger - Teardrops
TTITLE16=Carroll Lloyd - Try My Love
TTITLE17=Richard and Walter - I Love You
TTITLE18=Rudolph Taylor - Doorsteps to Sorrow
TTITLE19=Ann Hodge - Nothing But the Truth
TTITLE20=The Minits - Take a Look at Yourself
TTITLE21=Willie Cobbs - I'll Love Only You
EXTD=
EXTT0=
EXTT1=
EXTT2=
EXTT3=
EXTT4=
EXTT5=
EXTT6=
EXTT7=
EXTT8=
EXTT9=
EXTT10=
EXTT11=
EXTT12=
EXTT13=
EXTT14=
EXTT15=
EXTT16=
EXTT17=
EXTT18=
EXTT19=
EXTT20=
EXTT21=
PLAYORDER=
